HIERARCHY
ROOT pelvis
{
  OFFSET 0 100 0
  CHANNELS 6 Xposition Yposition Zposition Zrotation Xrotation Yrotation
  JOINT pelvis_right_femur
  {
    OFFSET -10.78128 -3.44521 -0.5502486
    CHANNELS 3 Zrotation Xrotation Yrotation
    JOINT right_femur_tibia
    {
      OFFSET -0.8047443 -44.0398 -0.1307829
      CHANNELS 3 Zrotation Xrotation Yrotation
      JOINT right_tibia_foot
      {
        OFFSET 3.006224 -47.83518 -5
        CHANNELS 3 Zrotation Xrotation Yrotation
        End Site
        {
          OFFSET 0 -5 15
        }
      }
    }
  }
  JOINT pelvis_left_femur
  {
    OFFSET 10.78128 -3.44521 -0.5502486
    CHANNELS 3 Zrotation Xrotation Yrotation
    JOINT left_femur_tibia
    {
      OFFSET 0.8047443 -44.0398 -0.1307829
      CHANNELS 3 Zrotation Xrotation Yrotation
      JOINT left_tibia_foot
      {
        OFFSET -4.370144 -48.10324 -4.275266
        CHANNELS 3 Zrotation Xrotation Yrotation
        End Site
        {
          OFFSET 0 -5 15
        }
      }
    }
  }
  JOINT pelvis_spine1
  {
    OFFSET 0 6.468898 -3.129235
    CHANNELS 3 Zrotation Xrotation Yrotation
    JOINT spine1
    {
      OFFSET 0 23.15396 4.99043
      CHANNELS 3 Zrotation Xrotation Yrotation
      JOINT spine2
      {
        OFFSET 0 20.79997 -5.064912
        CHANNELS 3 Zrotation Xrotation Yrotation
        JOINT neck
        {
          OFFSET 0 14.38658 9.616178
          CHANNELS 3 Zrotation Xrotation Yrotation
          End Site
          {
            OFFSET 0 20 0
          }
        }
      }
      JOINT right_manubrium
      {
        OFFSET -5.722621 16.35077 3.967754
        CHANNELS 3 Zrotation Xrotation Yrotation
        JOINT right_clavicle
        {
          OFFSET -13.16364 1.694482 -4.693211
          CHANNELS 3 Zrotation Xrotation Yrotation
          JOINT right_humerus
          {
            OFFSET -28.5034 -0.3100689 -2.792744
            CHANNELS 3 Zrotation Xrotation Yrotation
            JOINT right_radius
            {
              OFFSET -25.15693 0.02248979 -1.271978
              CHANNELS 3 Zrotation Xrotation Yrotation
              End Site
              {
                OFFSET -15 0 0
              }
            }
          }
        }
      }
      JOINT left_manubrium
      {
        OFFSET 5.722621 16.35077 3.967754
        CHANNELS 3 Zrotation Xrotation Yrotation
        JOINT left_clavicle
        {
          OFFSET 13.16364 1.694482 -4.693211
          CHANNELS 3 Zrotation Xrotation Yrotation
          JOINT left_humerus
          {
            OFFSET 29.39168 -1.063119 -2.237045
            CHANNELS 3 Zrotation Xrotation Yrotation
            JOINT left_radius
            {
              OFFSET 24.59957 -0.9528479 0.9047498
              CHANNELS 3 Zrotation Xrotation Yrotation
              End Site
              {
                OFFSET 15 -0 -0
              }
            }
          }
        }
      }
    }
  }
}
MOTION
Frames: 19
Frame Time: 0.0416666666667
1476.716 53.51518 2651.156 5.764478 -4.958085 31.31222 -0.5933058 14.61619 5.007339 -0 42.66246 -0 6.388851 -5.30773 -3.686417 -3.87474 -18.6503 -7.098107 -0 22.64974 -0 -6.078484 -9.687505 17.53566 -3.084406 -0.39275 8.22496 -1.388585 9.592631 -2.88001 2.442879 21.89125 5.67188 1.987687 -16.48195 7.841971 2.18818 -20.23047 10.66925 80.90115 23.97163 -5.813458 -0 0 23.21475 -26.06678 13.52367 14.17273 3.476768 -14.13929 -2.963925 -92.21543 23.29942 24.84209 0 0 -9.798181 -2.817283 6.716758 17.56376
1481.309 54.69743 2656.293 6.274062 -5.104873 32.23439 -0.9087197 11.19239 4.727551 -0 50.0507 -0 5.943822 -1.577092 -4.832973 -5.105848 -14.12451 -7.802256 -0 22.65407 -0 -5.255704 -10.68246 17.27674 -3.57432 -0.4149285 7.40325 -1.337845 9.91743 -3.351838 2.314486 22.08346 5.740801 1.956096 -16.41983 7.840797 2.651479 -19.40382 10.6204 82.24786 24.67746 -7.366983 -0 0 21.16994 -25.43368 13.38959 13.83528 3.244211 -14.49567 -3.336691 -91.21765 23.54244 23.27967 0 0 -9.977486 -2.548677 6.808736 17.30226
1485.725 56.21112 2661.16 6.390818 -5.118957 33.39354 -0.8466793 6.255099 4.436065 -0 55.49946 -0 4.942449 1.475673 -5.859964 -5.780618 -9.27824 -8.077198 -0 21.6599 -0 -4.302618 -11.80344 16.81817 -3.790055 -0.29534 6.369755 -1.111255 10.39976 -4.214545 1.974159 22.10577 5.96347 1.981212 -16.54537 7.721642 3.237165 -18.69472 10.72268 83.62663 25.80625 -9.368494 -0 0 18.99871 -24.83422 13.44951 13.65712 3.139846 -15.40141 -3.779381 -89.87597 23.58467 21.28278 0 0 -11.08381 -2.099885 6.869703 16.86555
1489.899 57.75591 2665.699 6.055398 -4.99963 34.66883 -0.4368515 -0.1831357 4.160311 -0 57.52209 -0 3.627752 3.115988 -6.715884 -5.888037 -4.378145 -8.027443 -0 19.70304 -0 -3.436954 -13.08662 16.17032 -3.67259 -0.02593762 5.253063 -0.7272811 10.87423 -5.39397 1.498642 21.94922 6.389209 2.07617 -16.74492 7.614873 3.830778 -18.06007 10.89626 84.96786 27.34269 -11.77198 -0 0 16.89956 -24.41343 13.96914 13.56865 3.305148 -16.80865 -4.217751 -88.23312 23.4162 18.81519 0 0 -13.2749 -1.488247 6.960172 16.24935
1493.818 58.94366 2669.951 5.460469 -4.856083 35.94604 0.103869 -7.43634 3.865803 -0 54.92807 -0 2.617654 2.599677 -7.506231 -5.598306 0.3905325 -7.94479 -0 17.25959 -0 -3.182515 -14.54748 15.34792 -3.245649 0.3375698 4.239149 -0.3120112 11.00971 -6.579711 1.139446 21.77549 6.884572 2.142793 -16.67237 7.726957 4.075708 -17.31375 10.90403 86.2801 28.72128 -14.31437 -0 0 15.15455 -24.15599 14.93308 13.33173 3.888575 -18.33992 -4.517767 -86.41124 23.17619 15.76934 0 0 -16.31689 -0.7934697 7.221255 15.45717
1497.542 59.41473 2674.097 5.060273 -4.842521 37.1418 0.3382116 -14.23655 3.32041 -0 47.72141 -0 2.481472 -0.2214911 -8.365546 -5.226234 5.127923 -8.198868 -0 15.13723 -0 -4.096108 -16.14016 14.29397 -2.716551 0.6905859 3.416341 -0.0510771 10.44669 -7.303005 1.239379 21.92961 7.132173 1.971051 -15.89553 8.254141 3.561013 -16.11155 10.46646 87.58203 29.11221 -16.52247 -0 0 13.82456 -23.96602 16.04788 12.68777 4.888969 -19.40344 -4.579338 -84.45181 23.1196 11.83403 0 0 -19.56275 -0.1047232 7.936972 14.40725
1501.155 59.00884 2678.388 5.228664 -4.956161 38.19795 -0.09701019 -19.58271 2.211091 -0 37.43417 -0 2.867266 -4.395581 -9.208136 -4.998803 10.07212 -8.89771 -0 13.99733 -0 -5.956211 -17.73508 12.97364 -2.493696 0.9903765 2.639146 0.04556186 9.150385 -7.321814 1.919768 22.64578 6.838532 1.443838 -14.36362 9.116945 2.382201 -14.19338 9.613372 88.83322 28.45369 -18.02305 -0 0 12.49243 -23.71181 16.96132 11.62378 6.004587 -19.72104 -4.477118 -82.25964 23.26934 6.698236 0 0 -22.29069 0.6356402 9.303058 12.78812
1504.726 57.9057 2682.994 5.80268 -4.933274 39.07155 -0.951829 -23.26234 0.6960135 -0 26.86459 -0 2.655431 -7.993364 -9.834432 -4.908253 14.86951 -9.655435 -0 14.06551 -0 -7.441765 -19.08434 11.70565 -2.876759 1.249719 1.770246 0.2227183 7.682465 -6.93508 2.802459 23.60404 6.107679 0.8353991 -12.79218 9.813709 1.378773 -11.90644 8.843303 89.88605 27.89511 -18.9354 -0 0 10.66338 -23.22646 17.49866 10.46048 6.785899 -19.69021 -4.402549 -80.04698 23.19691 1.093865 0 0 -24.14166 1.560265 10.8866 10.4613
1508.336 56.56578 2687.926 6.079239 -4.517925 39.73654 -1.303654 -25.43399 -0.3055659 -0 19.01291 -0 1.55648 -9.128031 -10.12983 -4.863408 18.27773 -9.881566 -0 15.23645 -0 -7.49913 -19.82091 11.10891 -3.499916 1.313639 1.117197 0.5955094 6.948851 -6.753479 3.226089 23.98934 5.551267 0.6963813 -12.26815 9.818709 1.298706 -10.346 8.660942 90.58671 28.33679 -19.85903 -0 0 8.610663 -22.45636 17.69697 9.590587 7.132356 -20.01895 -4.404025 -78.64233 22.59469 -2.636358 0 0 -25.41596 2.542831 11.66396 8.255822
1512.101 55.42256 2693.132 5.551392 -3.838084 40.21438 -0.513486 -26.28783 -0.04259939 -0 14.82532 -0 0.6102023 -7.493963 -10.08152 -4.814245 19.4958 -9.374935 -0 17.54876 -0 -6.698269 -19.60081 11.30571 -3.581803 0.9282057 1.126273 0.9780707 7.360276 -7.091722 2.97621 23.36822 5.600655 1.163216 -13.17342 9.21329 1.910537 -10.271 9.053429 91.03493 29.07638 -21.26745 -0 0 7.138024 -21.62726 17.6804 9.161048 7.336836 -20.95469 -4.365756 -78.59738 21.77469 -2.797705 0 0 -26.67591 3.279489 11.16966 7.376624
1516.089 54.68561 2698.59 4.563034 -3.399371 40.55168 1.079073 -26.07326 1.081974 -0 13.35404 -0 0.3867622 -4.769923 -9.908407 -4.632025 19.31654 -8.524914 -0 21.56159 -0 -6.225784 -18.33411 11.73773 -2.932339 0.2525694 1.589344 1.267937 8.379103 -7.6952 2.480146 22.31794 5.9157 1.773916 -14.72498 8.476434 2.551163 -11.11219 9.621144 91.33311 29.1068 -22.81187 -0 0 6.429213 -20.89415 17.40671 8.951901 7.414588 -21.97448 -4.301221 -79.45256 21.16309 -0.5635058 0 0 -27.63813 3.652351 10.12356 7.825248
1520.252 54.45165 2704.282 3.838778 -3.624126 40.71532 2.805485 -24.82124 2.301806 -0 13.9171 -0 0.4556336 -3.040955 -9.826108 -4.205057 18.78891 -7.872744 -0 27.8537 -0 -6.578187 -16.14987 12.02399 -1.956842 -0.2818997 1.994178 1.466744 9.242221 -8.10875 2.182401 21.69044 5.976967 2.123675 -15.82461 7.883666 2.955997 -11.84182 10.02994 91.38738 28.47108 -23.72127 -0 0 6.171179 -20.11318 16.80676 8.580991 7.121271 -22.43371 -4.31707 -80.45221 20.97589 1.868906 0 0 -27.5273 3.690746 9.467615 8.706216
1524.484 54.8119 2710.126 3.74315 -4.44526 40.62603 4.243505 -22.18196 3.36043 -0 15.8931 -0 0.5072783 -2.989157 -9.791613 -3.671598 17.74953 -7.534059 -0 36.17915 -0 -7.462504 -13.35211 12.31383 -1.091894 -0.5053373 2.29068 1.574657 9.763152 -8.121938 2.171576 21.68792 5.686535 2.187069 -16.11366 7.452802 3.205436 -12.16825 10.2731 91.11654 27.60961 -23.68439 -0 0 6.225609 -19.27365 16.03695 8.027271 6.445336 -22.21112 -4.378186 -81.36752 21.15586 3.714984 0 0 -26.23917 3.440078 9.307733 9.46448
1528.673 55.78146 2715.972 4.242299 -5.506283 40.25002 5.204616 -17.88582 4.293823 -0 18.19047 -0 0.560627 -4.05212 -9.628501 -3.248809 15.26402 -7.252409 -0 45.44737 -0 -8.364202 -10.43755 12.92617 -0.5915785 -0.4537544 2.76888 1.604012 10.16726 -7.766638 2.329246 22.02649 5.205962 2.155527 -15.83999 7.065637 3.431768 -12.41821 10.51918 90.42255 26.76709 -22.76872 -0 0 6.757264 -18.56407 15.22003 7.56544 5.598996 -21.56127 -4.393884 -82.4097 21.47195 5.408277 0 0 -24.20897 2.909604 9.204012 10.10219
1532.716 57.18289 2721.63 5.135709 -6.452807 39.60867 5.617479 -12.176 5.118065 -0 19.53383 -0 0.6157559 -5.52348 -9.181698 -2.98465 10.52071 -6.746959 -0 53.77884 -0 -8.960105 -8.083386 14.02655 -0.5612989 -0.1350522 3.648695 1.543409 10.62936 -7.127785 2.535444 22.4008 4.676538 2.221965 -15.28195 6.573178 3.688807 -12.96318 10.87325 89.13307 26.06912 -20.99173 -0 0 8.091459 -18.15717 14.28715 7.450272 4.852299 -20.76349 -4.322661 -83.79033 21.71069 7.442114 0 0 -21.9058 2.119166 8.81445 10.76503
1536.559 58.63995 2726.96 6.066905 -7.011784 38.74777 5.564809 -5.974738 5.800307 -0 18.98853 -0 0.591067 -7.010795 -8.426254 -2.686052 3.56288 -5.888811 -0 58.61156 -0 -9.135716 -6.936707 15.52202 -0.9227967 0.4317207 4.86976 1.369763 11.11769 -6.330755 2.703155 22.60284 4.18257 2.448484 -14.66054 5.916521 3.918752 -13.97481 11.30317 87.18611 25.55809 -18.37724 -0 0 10.41485 -18.11959 13.1235 7.827573 4.451459 -20.01206 -4.14777 -85.47845 21.73649 9.860666 0 0 -19.74762 1.213833 8.086014 11.48467
1540.237 59.75001 2731.955 6.65379 -7.140973 37.72042 5.290703 -0.4292577 6.272263 -0 16.86796 -0 0.4664203 -8.547177 -7.520382 -2.096762 -4.229578 -4.806833 -0 58.28375 -0 -8.975134 -7.073622 17.10164 -1.384733 1.105862 6.072347 1.088541 11.43072 -5.529526 2.794715 22.59981 3.768034 2.698645 -14.15967 5.236079 3.959495 -15.3205 11.65501 84.9039 25.08275 -15.2062 -0 0 13.4423 -18.35362 11.76517 8.634995 4.456911 -19.33292 -3.868219 -87.19869 21.59554 12.27911 0 0 -17.9183 0.4302135 7.281206 12.14197
1543.842 60.28627 2736.721 6.794345 -7.04751 36.61154 4.997408 4.018301 6.494658 -0 14.59362 -0 0.401209 -10.30885 -6.645285 -1.219835 -11.15121 -3.80421 -0 53.49639 -0 -8.678089 -7.909902 18.46748 -1.658508 1.688912 6.937535 0.7287496 11.41581 -4.798047 2.833731 22.51241 3.448519 2.777812 -13.86953 4.771048 3.656195 -16.73988 11.78959 82.86607 24.34061 -11.95621 -0 0 16.63555 -18.69536 10.40871 9.636118 4.69459 -18.60233 -3.527494 -88.75487 21.47326 14.44157 0 0 -16.22512 -0.1226339 6.717202 12.63167
1547.483 60.21486 2741.378 6.587351 -6.882443 35.51321 4.728441 7.685361 6.510055 -0 13.11118 -0 0.5953141 -12.21576 -5.780323 -0.2270188 -16.64233 -3.042623 -0 46.066 -0 -8.397673 -8.778517 19.4317 -1.645501 2.054142 7.473576 0.3350951 11.14777 -4.156821 2.812892 22.38797 3.254308 2.643751 -13.84545 4.597401 3.028357 -18.17992 11.72886 81.38029 23.21167 -8.992324 -0 0 19.76419 -19.14147 9.230009 10.70393 4.946888 -17.76613 -3.208751 -90.2013 21.40407 16.61146 0 0 -14.49546 -0.5338855 6.398603 13.04612
